<?xml version="1.0" standalone="no"?>
<!DOCTYPE svg PUBLIC "-//W3C//DTD SVG 20010904//EN"
 "http://www.w3.org/TR/2001/REC-SVG-20010904/DTD/svg10.dtd">
<svg version="1.0" xmlns="http://www.w3.org/2000/svg"
 width="119.000000pt" height="119.000000pt" viewBox="0 0 119.000000 119.000000"
 preserveAspectRatio="xMidYMid meet">
<metadata>
Created by potrace 1.11, written by Peter Selinger 2001-2013
</metadata>
<g transform="translate(0.000000,119.000000) scale(0.100000,-0.100000)"
fill="#000000" stroke="none">
<path d="M48 1009 c-20 -13 2 -27 37 -24 41 2 38 -5 -8 -21 -18 -6 -33 -18
-35 -28 -3 -15 7 -17 92 -15 90 1 116 9 80 23 -9 3 -30 6 -47 7 l-32 1 38 15
c32 14 51 41 30 44 -38 4 -147 3 -155 -2z"/>
<path d="M223 1003 c-3 -7 -3 -18 0 -25 3 -7 6 -3 6 10 1 13 5 21 9 18 4 -2
14 -1 22 4 11 7 9 9 -9 7 -13 -1 -25 -7 -28 -14z"/>
<path d="M346 1008 c3 -5 10 -6 15 -3 13 9 11 12 -6 12 -8 0 -12 -4 -9 -9z"/>
<path d="M388 1013 c7 -3 16 -2 19 1 4 3 -2 6 -13 5 -11 0 -14 -3 -6 -6z"/>
<path d="M426 1008 c3 -5 10 -6 15 -3 13 9 11 12 -6 12 -8 0 -12 -4 -9 -9z"/>
<path d="M460 1016 c0 -2 9 -6 20 -9 11 -3 18 -1 14 4 -5 9 -34 13 -34 5z"/>
<path d="M516 1008 c3 -4 11 -5 19 -1 21 7 19 12 -4 10 -11 0 -18 -5 -15 -9z"/>
<path d="M590 1016 c0 -2 7 -6 15 -10 8 -3 15 -1 15 4 0 6 -7 10 -15 10 -8 0
-15 -2 -15 -4z"/>
<path d="M636 1008 c3 -4 11 -5 19 -1 21 7 19 12 -4 10 -11 0 -18 -5 -15 -9z"/>
<path d="M710 1016 c0 -2 7 -6 15 -10 8 -3 15 -1 15 4 0 6 -7 10 -15 10 -8 0
-15 -2 -15 -4z"/>
<path d="M756 1008 c3 -4 11 -5 19 -1 21 7 19 12 -4 10 -11 0 -18 -5 -15 -9z"/>
<path d="M826 1008 c3 -5 10 -6 15 -3 13 9 11 12 -6 12 -8 0 -12 -4 -9 -9z"/>
<path d="M868 1013 c7 -3 16 -2 19 1 4 3 -2 6 -13 5 -11 0 -14 -3 -6 -6z"/>
<path d="M906 1008 c3 -5 10 -6 15 -3 13 9 11 12 -6 12 -8 0 -12 -4 -9 -9z"/>
<path d="M976 1008 c3 -4 11 -5 19 -1 21 7 19 12 -4 10 -11 0 -18 -5 -15 -9z"/>
<path d="M1020 1015 c0 -8 29 -12 39 -5 9 5 4 8 -13 8 -14 0 -26 -2 -26 -3z"/>
<path d="M1140 1014 l30 -5 0 -269 0 -269 -25 24 c-19 20 -34 25 -77 25 -77 0
-151 -51 -120 -82 7 -7 18 -3 36 15 32 32 59 41 101 33 31 -6 49 -26 48 -53
-1 -28 -4 -33 -17 -33 -38 0 -151 -44 -172 -67 -31 -33 -33 -94 -4 -123 l20
-20 -66 0 -66 0 31 26 c17 14 31 32 31 39 0 24 -28 24 -49 -1 -31 -36 -67 -47
-108 -33 -39 13 -73 60 -73 101 l0 26 93 0 c152 0 140 -5 133 48 -7 65 -45
110 -99 122 -96 20 -163 -37 -171 -149 -5 -67 9 -116 45 -151 l28 -29 -51 3
-52 3 0 223 -1 222 -22 0 c-22 0 -23 -4 -23 -75 0 -41 -3 -75 -7 -75 -5 0 -17
7 -27 15 -11 8 -41 15 -67 15 -77 0 -125 -53 -132 -147 -5 -68 10 -127 40
-157 l26 -26 -52 0 -51 0 0 163 0 163 -26 2 c-14 1 -23 -2 -19 -8 3 -6 1 -10
-4 -10 -14 0 -14 27 -1 35 6 3 10 12 10 18 0 9 -2 9 -8 1 -5 -9 -11 -8 -20 2
-7 8 -8 14 -2 14 17 0 11 21 -12 41 l-23 19 22 6 c23 6 33 34 13 34 -6 0 -5 6
2 14 7 8 15 10 19 5 3 -5 5 10 6 34 0 27 -2 35 -6 23 -7 -17 -8 -18 -14 -3 -8
21 -57 23 -57 3 0 -7 10 -17 22 -20 19 -5 20 -8 8 -15 -23 -13 -103 -8 -107 7
-3 6 2 12 11 12 9 0 16 8 16 20 0 18 7 20 58 21 31 1 62 1 67 0 6 -1 -1 8 -14
19 -12 11 -27 17 -32 14 -5 -3 -9 0 -9 5 0 6 8 11 18 11 9 0 23 12 29 27 11
23 10 28 -9 45 -18 15 -35 18 -88 16 -55 -3 -66 -6 -74 -24 l-10 -22 -18 22
-17 21 -1 -23 c0 -12 7 -25 16 -29 9 -3 28 -17 42 -29 24 -23 24 -24 3 -24
-32 0 -27 -30 7 -31 23 -2 24 -2 5 -6 -14 -3 -25 -14 -29 -30 -11 -41 7 -57
67 -63 l54 -5 -49 -8 c-66 -12 -76 -16 -76 -37 0 -15 13 -21 58 -30 82 -16 84
-18 20 -19 -46 -1 -59 -5 -68 -20 -14 -27 -13 -71 3 -71 8 0 8 -3 -2 -9 -25
-16 -6 -38 31 -34 l33 4 -37 -21 c-42 -23 -47 -34 -21 -49 17 -10 17 -10 1
-11 -10 0 -18 -7 -18 -15 0 -11 17 -15 73 -17 82 -3 92 -22 12 -24 -27 -1 -57
-2 -66 -3 -13 -1 -17 -13 -18 -61 l-1 -60 84 0 c65 0 85 3 90 15 4 12 -3 15
-34 15 -33 0 -40 3 -40 20 0 11 -7 20 -15 20 -8 0 -15 -9 -15 -20 0 -34 -37
-25 -42 10 l-5 30 69 0 c52 0 70 4 74 15 12 31 20 13 20 -42 l-1 -58 478 -3
477 -2 -2 417 -3 418 -32 3 c-33 2 -33 2 -3 -4z m-957 -142 c5 -1 5 -6 2 -12
-7 -12 -115 -14 -115 -2 0 5 2 11 5 14 4 4 86 4 108 0z m-73 -62 c0 -5 -4 -10
-10 -10 -5 0 -10 5 -10 10 0 6 5 10 10 10 6 0 10 -4 10 -10z m40 -188 c0 -5
-7 -9 -15 -9 -8 0 -15 4 -15 9 0 4 7 8 15 8 8 0 15 -4 15 -8z m32 -99 c8 -10
-2 -13 -51 -13 -55 0 -71 6 -55 23 11 11 95 3 106 -10z m38 -43 c0 -5 -10 -10
-22 -9 -22 0 -22 1 -3 9 11 5 21 9 23 9 1 1 2 -3 2 -9z m290 -18 c23 -18 25
-26 28 -107 3 -97 -2 -109 -56 -132 -74 -31 -133 24 -133 125 -1 59 12 94 46
120 31 24 77 22 115 -6z m274 18 c26 -10 49 -39 61 -77 6 -23 5 -23 -89 -23
-85 0 -96 2 -96 18 1 27 25 63 51 78 29 16 40 17 73 4z m-694 -10 c0 -5 -2
-10 -4 -10 -3 0 -8 5 -11 10 -3 6 -1 10 4 10 6 0 11 -4 11 -10z m73 3 c-7 -2
-19 -2 -25 0 -7 3 -2 5 12 5 14 0 19 -2 13 -5z m60 -80 c-1 -81 -2 -84 -12
-58 -4 11 -19 23 -32 26 -23 7 -23 7 4 8 17 1 27 7 27 16 0 14 -18 19 -65 16
-11 0 -1 7 23 16 23 10 42 23 42 30 0 7 3 13 8 13 4 0 6 -30 5 -67z m-116 -29
c-3 -3 -12 -4 -19 -1 -8 3 -5 6 6 6 11 1 17 -2 13 -5z m40 0 c-3 -3 -12 -4
-19 -1 -8 3 -5 6 6 6 11 1 17 -2 13 -5z m984 -1 c11 -80 -1 -110 -55 -134 -72
-32 -125 -5 -110 56 7 27 40 49 108 70 51 16 56 17 57 8z m-581 -158 c0 -9 -9
-15 -22 -15 -21 0 -21 0 -2 15 24 18 24 18 24 0z m590 0 c0 -10 -10 -15 -27
-15 l-28 1 25 14 c31 18 30 18 30 0z"/>
<path d="M245 641 c-15 -4 -21 -15 -21 -37 -1 -26 2 -31 18 -26 22 5 31 22 26
49 -2 14 -9 18 -23 14z"/>
</g>
</svg>
